<?xml version="1.0" ?><!DOCTYPE svg  PUBLIC '-//W3C//DTD SVG 1.1//EN'  'http://www.w3.org/Graphics/SVG/1.1/DTD/svg11.dtd'><svg enable-background="new 0 0 50 50" id="Layer_1" version="1.1" viewBox="0 0 50 50" xml:space="preserve" xmlns="http://www.w3.org/2000/svg" xmlns:xlink="http://www.w3.org/1999/xlink"><path d="M45,1H5C2.8,1,1,2.8,1,5v40c0,2.2,1.8,4,4,4h40c2.2,0,4-1.8,4-4V5C49,2.8,47.2,1,45,1z" fill="#00A8FB"/><g id="Logo_1_"><path d="M17.5,23H11c-1,0-1,1-1,1v3c0,0,0,1,1,1h4L17.5,23z" fill="#FFFFFF"/><path d="M15,35.7l-1.8-1c-0.3-0.2-0.6,0-0.7,0.3l-0.3,2.7c0,0.4,0.2,0.5,0.5,0.3l2.3-1.6   C15.3,36.2,15.3,35.9,15,35.7z" fill="#FFFFFF"/><path d="M24.9,20.1c0.2-0.3,0.1-0.8-0.3-0.9l-1.8-1c-0.3-0.2-0.8-0.1-0.9,0.3l-2.8,4.8L16,28.5l-2.5,4.4   c-0.2,0.3-0.1,0.8,0.3,0.9l1.8,1c0.3,0.2,0.8,0.1,0.9-0.3l3.5-6.2l2.3-4L24.9,20.1z" fill="#FFFFFF"/><polygon fill="#FFFFFF" points="24.5,23 22,28 29.5,28 27,23  "/><path d="M34.7,28.5C34.7,28.5,34.7,28.5,34.7,28.5c-0.2-0.4-0.6-1.2-1.2-2.2c0,0,0,0,0,0c0-0.1-0.1-0.2-0.1-0.2   c0-0.1-0.1-0.1-0.1-0.2c0,0-0.1-0.1-0.1-0.2c0-0.1-0.1-0.2-0.1-0.3c0,0,0-0.1,0-0.1c-0.1-0.1-0.1-0.2-0.2-0.3c0,0,0-0.1,0-0.1   c-1.3-2.4-2.9-5.4-3.9-6.9c-1.7-2.7-4-7.3-4.7-7c-0.9,0.5,1.9,6.2,2.8,8.4s4.5,10.5,5.3,10.9c0.7,0.4,1,0.2,1.5,0   C34.3,30,35.1,29.3,34.7,28.5z" fill="#FFFFFF"/><path d="M36.8,32.8l-0.9-1.7c-0.2-0.4-0.7-0.5-1-0.3l-1,0.5c-0.4,0.2-0.5,0.6-0.3,1l1.1,1.7   c0.2,0.4,0.7,0.5,1.1,0.3l0.7-0.4C36.8,33.7,37,33.2,36.8,32.8z" fill="#FFFFFF"/><path d="M36.5,35.2c-0.3,0.3-0.9,0.8-0.1,1.9c0.8,1.1,2.5,1.1,2.7,1.9C39.1,39,39.6,33.4,36.5,35.2z" fill="#FFFFFF"/><path d="M33.5,23H39c1,0,1,1,1,1v3c0,0,0,1-1,1h-3L33.5,23z" fill="#FFFFFF"/></g></svg>